# xmcd CD database file
#
# Track frame offsets:
#	150
#	17470
#	33177
#	57942
#	73520
#	97265
#	114097
#	136860
#	152790
#	168502
#	182847
#	205762
#	215255
#	231137
#	250852
#	263962
#	276382
#	292937
#	306155
#
# Disc length: 4343 seconds
#
# Revision: 1
# Processed by: cddbd v1.5.2PL0 Copyright (c) Steve Scherf et al.
# Submitted via: CDex 1.40Release
#
DISCID=0b10f513
DTITLE=Johnny Winter - White Hot Blues
DYEAR=1997
DGENRE=Blues
TTITLE0=Rock me baby
TTITLE1=Divin' duck
TTITLE2=Memory pain
TTITLE3=Rollin' and tumblin'
TTITLE4=Be careful with a fool
TTITLE5=I love everybody
TTITLE6=New York, New York
TTITLE7=Walkin' by myself
TTITLE8=Leland Mississippi blues
TTITLE9=TV Mama
TTITLE10=Highway 61 revisited
TTITLE11=The crawl
TTITLE12=Hustled down in Texas
TTITLE13=Too much seconal
TTITLE14=Messin' with the kid
TTITLE15=Johnny B. Goode (Live)
TTITLE16=Tired of tryin'
TTITLE17=Mother-in-law blues
TTITLE18=Honest I do
EXTD=YEAR: 1997 ID3G: 0
EXTT0=
EXTT1=
EXTT2=
EXTT3=
EXTT4=
EXTT5=
EXTT6=
EXTT7=
EXTT8=
EXTT9=
EXTT10=
EXTT11=
EXTT12=
EXTT13=
EXTT14=
EXTT15=
EXTT16=
EXTT17=
EXTT18=
PLAYORDER=
